#!OML:ASF E:\emotionWalksFemale\Project 1\Capture day 1\Session 1\Female1.ASF
:FULLY-SPECIFIED
:DEGREES
347
root 6.96522 15.2074 41.5557 181.723 7.74257 -180.209
lowerback 10.3612 1.1907 -1.34353
upperback -0.721868 1.40783 -0.578314
thorax -6.59735 0.737633 -0.0755212
lowerneck -5.12125 -4.32993 -6.99539
upperneck 29.1923 -4.34644 7.29703
head 10.4824 -0.953773 3.57272
rclavicle -2.09966e-015 6.95746e-015
rhumerus -40.8821 16.5395 -95.7242
rradius 33.4656
rwrist 11.1037
rhand -6.16401 -57.8891
rfingers 7.12502
rthumb 19.6747 -86.9135
lclavicle -2.09966e-015 6.95746e-015
lhumerus -40.9614 -7.10833 90.4839
lradius 38.6676
lwrist -14.1886
lhand -2.57364 -33.7044
lfingers 7.12502
lthumb 23.1231 -5.07205
rfemur -25.6027 9.70096 19.4297
rtibia 46.2109
rfoot -17.9942 -22.5237
rtoes 4.69027
lfemur -5.24922 -18.3597 -30.1229
ltibia 22.3479
lfoot -23.6632 22.8663
ltoes -5.32298
348
root 6.9684 15.2015 41.5309 181.919 8.38161 -180.203
lowerback 10.3148 1.38473 -1.52225
upperback -0.824675 1.64082 -0.587937
thorax -6.68761 0.857453 -0.0229436
lowerneck -5.19996 -4.26701 -6.95116
upperneck 29.1469 -4.3057 7.4249
head 10.4776 -0.919582 3.61368
rclavicle 1.81391e-015 -4.17448e-015
rhumerus -40.6381 15.7962 -95.2028
rradius 33.3139
rwrist 12.9257
rhand -8.31377 -55.6668
rfingers 7.12502
rthumb 17.6069 -84.8895
lclavicle 1.81391e-015 -4.17448e-015
lhumerus -41.0025 -7.01824 90.4275
lradius 38.5367
lwrist -14.5299
lhand -2.78562 -34.2681
lfingers 7.12502
lthumb 22.9197 -5.61035
rfemur -26.2369 10.2052 19.514
rtibia 45.6923
rfoot -17.8445 -22.4185
rtoes 4.18957
lfemur -5.33697 -18.1201 -30.1456
ltibia 22.2887
lfoot -23.6838 23.2569
ltoes -5.22549
349
root 6.9642 15.1973 41.4931 181.736 8.35723 -180.36
lowerback 10.4137 1.37621 -1.58627
upperback -0.733995 1.61919 -0.677776
thorax -6.64645 0.848913 -0.0789324
lowerneck -5.30204 -4.26196 -6.83685
upperneck 28.9559 -4.35293 7.42665
head 10.4258 -0.944985 3.57933
rclavicle -3.3371e-014 -4.96962e-015
rhumerus -40.4465 15.5176 -94.9617
rradius 33.3289
rwrist 13.5309
rhand -6.61221 -55.6516
rfingers 7.12502
rthumb 19.2437 -84.7195
lclavicle -3.3371e-014 -4.96962e-015
lhumerus -41.0967 -7.281 90.4585
lradius 38.6819
lwrist -14.683
lhand -3.09232 -34.602
lfingers 7.12502
lthumb 22.6254 -5.90808
rfemur -26.257 10.2596 19.4546
rtibia 45.0626
rfoot -18.1519 -22.1432
rtoes 4.51695
lfemur -4.95763 -18.1283 -30.4993
ltibia 22.2823
lfoot -23.6021 23.4792
ltoes -6.35626
350
root 6.95849 15.1962 41.4577 181.761 8.26725 -180.407
lowerback 10.3212 1.31456 -1.56021
upperback -0.668065 1.5426 -0.71774
thorax -6.52116 0.810124 -0.119774
lowerneck -5.38174 -4.2474 -6.67303
upperneck 28.7308 -4.37608 7.33477
head 10.3517 -0.968037 3.50316
rclavicle -4.52484e-014 1.19271e-014
rhumerus -40.3626 15.5665 -94.9627
rradius 33.3478
rwrist 13.1868
rhand -6.89538 -55.1905
rfingers 7.12502
rthumb 18.9714 -84.2853
lclavicle -4.52484e-014 1.19271e-014
lhumerus -41.1617 -7.66228 90.5618
lradius 38.7846
lwrist -14.8861
lhand -4.20032 -34.7888
lfingers 7.12502
lthumb 21.5616 -5.96906
rfemur -26.4577 10.3309 19.4446
rtibia 44.3408
rfoot -18.4688 -22.1746
rtoes 4.34588
lfemur -4.83992 -18.1465 -30.6627
ltibia 22.3129
lfoot -23.4701 23.7335
ltoes -7.76283
351
root 6.96022 15.1931 41.4324 182.107 8.98072 -180.207
lowerback 10.1987 1.51337 -1.59978
upperback -0.825624 1.80147 -0.653313
thorax -6.62521 0.937868 -0.0704886
lowerneck -5.28135 -4.18996 -6.55134
upperneck 28.5563 -4.33875 7.35995
head 10.26 -0.945389 3.48851
rclavicle 1.14301e-015 5.1684e-015
rhumerus -40.4523 15.7102 -95.067
rradius 33.2855
rwrist 13.0037
rhand -7.38874 -54.4224
rfingers 7.12502
rthumb 18.4969 -83.563
lclavicle 1.14301e-015 5.1684e-015
lhumerus -41.3127 -7.95899 90.6775
lradius 38.8202
lwrist -14.8955
lhand -5.16306 -34.9885
lfingers 7.12502
lthumb 20.6367 -6.06553
rfemur -27.134 11.0367 19.6236
rtibia 43.5165
rfoot -18.3504 -22.1699
rtoes 4.60073
lfemur -5.10213 -17.8341 -30.4605
ltibia 22.329
lfoot -23.6106 24.1604
ltoes -6.98214
352
root 6.95577 15.1887 41.4013 182.114 8.9075 -180.15
lowerback 10.4062 1.44516 -1.51394
upperback -0.887833 1.71625 -0.631174
thorax -6.80608 0.893379 -0.0888156
lowerneck -5.24449 -4.13004 -6.46728
upperneck 28.4358 -4.28661 7.38356
head 10.2012 -0.917379 3.48311
rclavicle 3.21534e-014 -9.54166e-015
rhumerus -40.5132 16.0071 -95.2137
rradius 33.3314
rwrist 12.862
rhand -5.41837 -55.6539
rfingers 7.12502
rthumb 20.3914 -84.6033
lclavicle 3.21534e-014 -9.54166e-015
lhumerus -41.3153 -8.05217 90.743
lradius 38.817
lwrist -14.4809
lhand -4.72299 -34.8305
lfingers 7.12502
lthumb 21.0595 -5.95403
rfemur -27.2734 11.1732 19.7003
rtibia 42.5632
rfoot -18.2028 -22.1542
rtoes 5.34013
lfemur -5.00548 -17.8962 -30.4985
ltibia 22.3968
lfoot -23.595 24.2124
ltoes -6.21888
353
root 6.95895 15.1825 41.3655 182.07 9.06703 -180.297
lowerback 10.413 1.51082 -1.75734
upperback -0.839153 1.77472 -0.647306
thorax -6.76623 0.931255 0.0221833
lowerneck -5.39819 -4.12751 -6.36537
upperneck 28.3438 -4.31714 7.36548
head 10.1959 -0.932576 3.44981
rclavicle -2.03506e-014 9.54166e-015
rhumerus -40.357 15.9899 -95.1744
rradius 33.2841
rwrist 12.7728
rhand 0.371087 -59.612
rfingers 7.12502
rthumb 25.9458 -87.8612
lclavicle -2.03506e-014 9.54166e-015
lhumerus -41.1344 -7.9297 90.7197
lradius 38.7519
lwrist -14.4075
lhand -4.383 -34.7965
lfingers 7.12502
lthumb 21.3861 -5.95673
rfemur -27.399 11.5781 19.539
rtibia 41.5241
rfoot -18.1015 -22.1507
rtoes 5.24339
lfemur -4.87015 -17.9725 -30.7836
ltibia 22.5134
lfoot -23.7836 24.4819
ltoes -5.48673
354
root 6.9619 15.1856 41.3236 182.133 8.6427 -180.123
lowerback 10.3589 1.38931 -1.55051
upperback -0.842268 1.6423 -0.581873
thorax -6.73239 0.859311 -0.00239025
lowerneck -5.47151 -4.1627 -6.38472
upperneck 28.2479 -4.40907 7.47618
head 10.1847 -0.972165 3.47908
rclavicle -1.36664e-014 -3.37934e-015
rhumerus -40.3844 15.713 -95.0634
rradius 33.2187
rwrist 12.5379
rhand -7.50081 -53.6785
rfingers 7.12502
rthumb 18.3891 -82.8293
lclavicle -1.36664e-014 -3.37934e-015
lhumerus -41.1729 -8.02215 90.8325
lradius 38.837
lwrist -14.42
lhand -4.52569 -34.7211
lfingers 7.12502
lthumb 21.2491 -5.86585
rfemur -27.3811 11.9671 19.6459
rtibia 40.3901
rfoot -18.4756 -22.6931
rtoes 5.15718
lfemur -4.69958 -18.2353 -30.6382
ltibia 22.4812
lfoot -24.0489 24.2725
ltoes -4.2701
355
root 6.9623 15.1864 41.2854 182.235 8.70614 -179.842
lowerback 10.3993 1.41056 -1.26445
upperback -0.907312 1.70784 -0.487711
thorax -6.81954 0.881563 -0.0769711
lowerneck -5.36731 -4.14348 -6.56998
upperneck 28.0289 -4.45462 7.79957
head 10.0986 -0.989275 3.61642
rclavicle -2.53947e-014 2.5842e-015
rhumerus -40.5344 15.6927 -95.0566
rradius 33.2557
rwrist 11.9637
rhand -8.16624 -53.6247
rfingers 7.12502
rthumb 17.7489 -82.8347
lclavicle -2.53947e-014 2.5842e-015
lhumerus -41.3032 -8.26923 91.0213
lradius 38.939
lwrist -14.2617
lhand -4.26142 -34.6712
lfingers 7.12502
lthumb 21.5029 -5.84479
rfemur -27.5026 12.6798 19.8077
rtibia 39.1971
rfoot -18.6568 -23.1407
rtoes 4.98632
lfemur -4.55584 -18.2358 -30.3969
ltibia 22.3861
lfoot -24.3305 24.1875
ltoes -3.03801
356
root 6.96568 15.1892 41.2419 182.268 8.69716 -179.851
lowerback 10.2706 1.38816 -1.29299
upperback -0.87396 1.67794 -0.474783
thorax -6.7119 0.86814 -0.0385103
lowerneck -5.43112 -4.13076 -6.63055
upperneck 27.8794 -4.51198 8.0521
head 10.0671 -1.00534 3.70585
rclavicle -2.39287e-014 1.98785e-016
rhumerus -40.4215 15.8738 -95.1251
rradius 33.1975
rwrist 11.5694
rhand -8.37491 -54.4481
rfingers 7.12502
rthumb 17.5481 -83.6761
lclavicle -2.39287e-014 1.98785e-016
lhumerus -41.1687 -8.27836 91.0096
lradius 38.7934
lwrist -14.5984
lhand -4.24179 -34.8724
lfingers 7.12502
lthumb 21.5218 -6.04812
rfemur -27.5654 13.2451 19.6418
rtibia 37.9363
rfoot -18.7456 -23.2373
rtoes 5.7472
lfemur -4.37423 -18.0845 -30.4578
ltibia 22.3067
lfoot -24.2904 24.1717
ltoes -3.73722
357
root 6.96922 15.1849 41.1963 182.214 8.64177 -179.905
lowerback 10.2701 1.36894 -1.34102
upperback -0.869196 1.64564 -0.493802
thorax -6.70699 0.853895 -0.0262388
lowerneck -5.49224 -4.13609 -6.50994
upperneck 27.7869 -4.54889 8.03329
head 10.0441 -1.01901 3.66939
rclavicle 2.66868e-014 -1.59028e-015
rhumerus -40.2932 15.7037 -95.0854
rradius 33.0029
rwrist 11.7734
rhand -8.54112 -54.8551
rfingers 7.12502
rthumb 17.3881 -84.0974
lclavicle 2.66868e-014 -1.59028e-015
lhumerus -41.0938 -8.2715 91.0096
lradius 38.627
lwrist -15.01
lhand -4.60654 -34.683
lfingers 7.12502
lthumb 21.1714 -5.81906
rfemur -27.5155 13.8442 19.3931
rtibia 36.6424
rfoot -18.9608 -23.2074
rtoes 6.47814
lfemur -4.06484 -17.9058 -30.6026
ltibia 22.1749
lfoot -24.2489 24.0902
ltoes -4.54106
358
root 6.97037 15.1792 41.1512 182.343 8.79719 -179.858
lowerback 10.1636 1.42673 -1.35634
upperback -0.955341 1.72274 -0.431493
thorax -6.74127 0.89246 0.0368733
lowerneck -5.52999 -4.13595 -6.46078
upperneck 27.7615 -4.53031 7.8965
head 10.0362 -1.02356 3.61141
rclavicle 9.67833e-015 -6.75868e-015
rhumerus -40.201 15.3951 -94.8915
rradius 32.6942
rwrist 11.9067
rhand -8.35371 -54.2986
rfingers 7.12502
rthumb 17.5685 -83.5248
lclavicle 9.67833e-015 -6.75868e-015
lhumerus -41.1928 -8.26161 91.1539
lradius 38.6177
lwrist -15.0651
lhand -4.96062 -34.5907
lfingers 7.12502
lthumb 20.8312 -5.68896
rfemur -27.6937 14.5588 19.1787
rtibia 35.3434
rfoot -19.043 -23.3123
rtoes 6.50799
lfemur -3.91511 -17.868 -30.6204
ltibia 21.9764
lfoot -24.3863 24.1013
ltoes -4.48914
